<?xml version="1.0" encoding="utf-8"?>
<!-- Generator: Adobe Illustrator 18.0.0, SVG Export Plug-In . SVG Version: 6.00 Build 0)  -->
<!DOCTYPE svg PUBLIC "-//W3C//DTD SVG 1.1//EN" "http://www.w3.org/Graphics/SVG/1.1/DTD/svg11.dtd">
<svg version="1.1" id="Shape_1_copy_1_" xmlns="http://www.w3.org/2000/svg" xmlns:xlink="http://www.w3.org/1999/xlink" x="0px"
	 y="0px" viewBox="470.3 243.9 40 40" enable-background="new 470.3 243.9 40 40" xml:space="preserve">
<path fill="#FFFFFF" d="M510.3,257.4L510.3,257.4c0-0.1,0-0.1,0-0.3c0,0,0,0,0-0.1v-0.1c0,0,0,0,0-0.1v-0.1c0,0,0,0,0-0.1
	c0,0,0-0.1-0.1-0.1c0,0,0,0,0-0.1c0,0,0,0-0.1-0.1c0,0,0,0-0.1-0.1c0,0,0,0-0.1-0.1c0,0,0,0-0.1,0l0,0l-18.3-11.6
	c-0.5-0.4-1.3-0.4-1.9,0l-18.5,12l0,0h-0.1c0,0,0,0-0.1,0.1c0,0,0,0-0.1,0.1c0,0,0,0-0.1,0.1c0,0,0,0,0,0.1c0,0,0,0.1-0.1,0.1
	c0,0,0,0,0,0.1v0.1c0,0,0,0,0,0.1v0.1c0,0,0,0,0,0.1v0.1c0,0,0,0,0,0.1c0,0.1,0,0.1,0,0.3v11.6c0,0.1,0,0.1,0,0.3c0,0,0,0,0,0.1v0.1
	c0,0,0,0,0,0.1v0.1c0,0,0,0,0,0.1v0.1c0,0,0,0,0,0.1c0,0,0,0.1,0.1,0.1c0,0,0,0,0,0.1c0,0,0,0,0.1,0.1c0,0,0,0,0.1,0.1
	c0,0,0,0,0.1,0.1h0.1l0,0l18.3,12c0.3,0.3,0.7,0.3,0.9,0.3c0.3,0,0.7-0.1,0.9-0.3l18.3-12l0,0c0,0,0,0,0.1,0c0,0,0.1,0,0.1-0.1
	c0,0,0,0,0.1-0.1c0,0,0,0,0.1-0.1c0,0,0,0,0-0.1c0,0,0-0.1,0.1-0.1c0,0,0,0,0-0.1v-0.1c0,0,0,0,0-0.1v-0.1c0,0,0,0,0-0.1v-0.1
	c0,0,0,0,0-0.1c0-0.1,0-0.1,0-0.3v-12C510.3,257.6,510.3,257.6,510.3,257.4z M492,248.8l13.5,8.9l-6,4l-7.5-4.9V248.8z M488.7,248.8
	v7.9l-7.5,4.9l-6-4L488.7,248.8z M473.7,260.9l4.3,2.9l-4.3,2.9V260.9z M488.7,278.7l-13.5-9l6-4l7.5,4.9V278.7z M490.3,267.7
	l-6.2-4.1l6.2-4.1l6.2,4.1L490.3,267.7z M492,278.7v-7.9l7.5-4.9l6,4L492,278.7z M507,266.6l-4.3-2.9l4.3-2.9
	C507,260.9,507,266.6,507,266.6z"/>
</svg>
