<?xml version="1.0" encoding="utf-8"?>
<!-- Generator: Adobe Illustrator 18.0.0, SVG Export Plug-In . SVG Version: 6.00 Build 0)  -->
<!DOCTYPE svg PUBLIC "-//W3C//DTD SVG 1.1//EN" "http://www.w3.org/Graphics/SVG/1.1/DTD/svg11.dtd">
<svg version="1.1" id="Layer_1" xmlns="http://www.w3.org/2000/svg" xmlns:xlink="http://www.w3.org/1999/xlink" x="0px" y="0px"
	 viewBox="460 260 40 40" enable-background="new 460 260 40 40" xml:space="preserve">
<path fill="#F9D76D" d="M480,297.5c-4,0-7.8-1.2-10.5-3.8c2.8-5.2,8-9.2,13.5-11.2c2.8,6.2,3.8,10.5,4,13.5
	C485,297,482.5,297.5,480,297.5z M490,294.5c-1.2-6.5-3.5-12-3.8-12.5c4-0.5,7.5-0.5,11.2,0C497,287,494,291.5,490,294.5z
	 M462.5,278.8c6.5,0.5,11,0,18-2.2c0.5,1.2,1.2,2.5,1.5,3.5c-5.5,2-12,6-15.2,11.5c-2.8-3-4.2-7-4.2-11.5
	C462.5,279.8,462.5,279.5,462.5,278.8z M494.5,270c2,2.5,2.8,5.5,3,9c-2.8-0.5-8-1-12.2,0c-0.5-1.2-0.8-2-1.8-3.5
	C487.2,273.8,491.2,272.5,494.5,270z M473,263.8c2.5,3.5,4.5,6.5,6.2,10.2c-2.8,1-10.5,2.5-16.2,2C464.5,270.2,468,266,473,263.8z
	 M480,262.5c5,0,9.5,2.2,12.5,5.2c-2.8,2.5-7.8,4-10.2,5c-2.2-3.8-3.5-5.8-6-10C477.5,262.8,478.8,262.5,480,262.5z M480,260
	c-11,0-20,9-20,20s9,20,20,20s20-9,20-20S491,260,480,260z"/>
</svg>
