<?xml version="1.0" encoding="utf-8"?>
<!-- Generator: Adobe Illustrator 18.0.0, SVG Export Plug-In . SVG Version: 6.00 Build 0)  -->
<!DOCTYPE svg PUBLIC "-//W3C//DTD SVG 1.1//EN" "http://www.w3.org/Graphics/SVG/1.1/DTD/svg11.dtd">
<svg version="1.1" id="Layer_1" xmlns="http://www.w3.org/2000/svg" xmlns:xlink="http://www.w3.org/1999/xlink" x="0px" y="0px"
	 viewBox="460 253.3 40 40" enable-background="new 460 253.3 40 40" xml:space="preserve">
<path fill="#FFFFFF" d="M480,253.3c-11,0-20,9.2-20,20.5c0,9,5.8,16.6,13.8,19.5c1,0.3,1.2-0.5,1.2-1c0-0.5,0-1.8,0-3.6
	c-5.5,1.3-6.8-2.8-6.8-2.8c-1-2.3-2.2-3.1-2.2-3.1c-1.8-1.3,0.2-1.3,0.2-1.3c2,0.3,3,2,3,2c1.8,3.1,4.8,2.3,5.8,1.8
	c0.2-1.3,0.8-2.3,1.2-2.8c-4.5-0.5-9-2.3-9-10.2c0-2.3,0.8-4.1,2-5.4c-0.2-0.5-1-2.6,0.2-5.4c0,0,1.8-0.5,5.5,2c1.5,0,3.2-0.3,5-0.3
	s3.5,0.3,5,0.8c3.8-2.6,5.5-2,5.5-2c1,2.8,0.5,4.9,0.2,5.4c1.2,1.5,2,3.3,2,5.4c0,7.9-4.8,9.7-9.2,10c0.8,0.8,1.5,2,1.5,3.8
	c0,2.8,0,4.9,0,5.6c0,0.5,0.2,1.3,1.5,1c7.8-2.8,13.5-10.5,13.5-19.5C500,262.6,491,253.3,480,253.3z"/>
</svg>
