<?xml version="1.0" encoding="utf-8"?>
<!-- Generator: Adobe Illustrator 18.0.0, SVG Export Plug-In . SVG Version: 6.00 Build 0)  -->
<!DOCTYPE svg PUBLIC "-//W3C//DTD SVG 1.1//EN" "http://www.w3.org/Graphics/SVG/1.1/DTD/svg11.dtd">
<svg version="1.1" id="Layer_1" xmlns="http://www.w3.org/2000/svg" xmlns:xlink="http://www.w3.org/1999/xlink" x="0px" y="0px"
	 viewBox="460 258.2 40 40" enable-background="new 460 258.2 40 40" xml:space="preserve">
<path fill="#FFFFFF" d="M500,262.9c-1.4,0.7-3.1,1.4-4.6,1.8c1.7-1.4,2.9-3.2,3.7-5.7c-1.7,1.1-3.4,2.1-5.1,2.5
	c-1.4-2.1-3.7-3.2-6-3.2c-4.6,0-8.3,4.6-8.3,10.3c0,0.7,0,1.4,0.3,2.5c-7.1-0.7-13.1-5-17.1-11c-0.9,1.4-1.1,3.2-1.1,5
	c0,3.5,1.4,6.7,3.7,8.5c-1.4,0-2.6-0.4-3.7-1.1l0,0c0,5,2.9,9.2,6.6,9.9c-0.9,0.4-1.4,0.4-2.3,0.4c-0.6,0-1.1,0-1.4-0.4
	c1.1,3.9,4,7.1,7.7,7.1c-2.9,2.8-6.3,4.2-10.3,4.2c-0.6,0-1.4,0-2,0c3.7,2.8,8,4.6,12.6,4.6c15.1,0,23.4-15.6,23.4-29
	c0-0.4,0-0.7,0-1.4C497.4,266.7,498.9,265,500,262.9z"/>
</svg>
